<svg width="65" height="65" viewBox="0 0 65 65" fill="none" xmlns="http://www.w3.org/2000/svg">
<g id="ri:linkedin-fill">
<path id="Vector" d="M18.7959 13.5417C18.7951 14.9783 18.2238 16.3557 17.2074 17.3711C16.1911 18.3864 14.8131 18.9564 13.3765 18.9556C11.9399 18.9549 10.5624 18.3836 9.54711 17.3672C8.5318 16.3509 7.96181 14.9729 7.96253 13.5363C7.96324 12.0997 8.53461 10.7222 9.55094 9.7069C10.5673 8.69159 11.9453 8.1216 13.3819 8.12232C14.8185 8.12303 16.196 8.69441 17.2113 9.71074C18.2266 10.7271 18.7966 12.1051 18.7959 13.5417ZM18.9584 22.9667H8.12502V56.875H18.9584V22.9667ZM36.075 22.9667H25.2959V56.875H35.9667V39.0813C35.9667 29.1688 48.8854 28.2479 48.8854 39.0813V56.875H59.5834V35.3979C59.5834 18.6875 40.4625 19.3104 35.9667 27.5167L36.075 22.9667Z" fill="white"/>
</g>
</svg>
